<svg width="45" height="45" viewBox="0 0 45 45" fill="none" xmlns="http://www.w3.org/2000/svg">
<path fill-rule="evenodd" clip-rule="evenodd" d="M34.2773 0C40.7812 0 45 4.21875 45 10.7227V34.2773C45 40.7812 40.7812 45 34.2773 45H10.7227C4.21875 45 0 40.7812 0 34.2773V10.7227C0 4.21875 4.21875 0 10.7227 0H34.2773Z" fill="#8DB7BD"/>
<path d="M34.583 14.0851H26.9841V16.1983H34.6129L34.583 14.0851ZM32.9793 28.6232C32.4028 29.0052 31.7221 29.1989 31.0309 29.1778C30.5733 29.2255 30.1109 29.1782 29.6724 29.039C29.234 28.8997 28.8291 28.6714 28.4829 28.3684C27.843 27.6428 27.5098 26.6971 27.5537 25.7306H37.4756C37.5471 24.7242 37.4612 23.7129 37.2208 22.733C36.9883 21.8008 36.5815 20.921 36.0218 20.1401C35.4584 19.3827 34.7308 18.7626 33.8935 18.3266C32.9619 17.8673 31.9345 17.6361 30.896 17.6522C29.9192 17.645 28.951 17.8336 28.0483 18.2067C27.2217 18.5552 26.4727 19.0647 25.8451 19.7055C25.2192 20.3591 24.7345 21.1346 24.4212 21.9836C24.0851 22.9002 23.9175 23.8701 23.9266 24.8463C23.9112 25.8364 24.0737 26.8212 24.4062 27.7539C24.6887 28.5985 25.1372 29.3782 25.7252 30.0471C26.3335 30.7038 27.0812 31.2159 27.9134 31.5459C28.8413 31.8994 29.8282 32.0724 30.821 32.0554C32.214 32.0989 33.5893 31.7342 34.7778 31.0063C35.9782 30.1533 36.8424 28.9073 37.2208 27.4842H33.9085C33.7312 27.955 33.4049 28.355 32.9793 28.6232ZM27.8384 22.4483C27.9551 22.0746 28.1487 21.7295 28.4069 21.4352C28.665 21.1409 28.9819 20.904 29.3372 20.7396C29.8078 20.5278 30.3202 20.4254 30.836 20.4399C31.2086 20.4081 31.5837 20.4572 31.9356 20.584C32.2874 20.7108 32.6077 20.9121 32.8744 21.1743C33.3836 21.7977 33.7104 22.5499 33.8186 23.3475H27.5986C27.6229 23.0429 27.6781 22.7416 27.7635 22.4483H27.8384ZM19.9099 21.7288C20.6727 21.4112 21.3356 20.8934 21.8283 20.2301C22.2813 19.5256 22.5063 18.6988 22.4728 17.862C22.5022 17.0989 22.3534 16.3394 22.0382 15.6438C21.7734 15.0412 21.3483 14.5227 20.8092 14.145C20.2376 13.7523 19.5886 13.4865 18.9057 13.3657C18.0976 13.1962 17.2734 13.1157 16.4477 13.1258H7.5V31.9805H16.6426C17.4769 31.9811 18.3079 31.8753 19.1155 31.6658C19.881 31.4677 20.6063 31.1381 21.2588 30.6915C21.8909 30.2535 22.4056 29.6667 22.7576 28.9829C23.1471 28.2182 23.3378 27.3678 23.3121 26.51C23.3405 25.4469 23.0424 24.4007 22.4578 23.5124C21.8292 22.619 20.8969 21.985 19.835 21.7288H19.9099ZM11.6516 16.3482H15.5335C15.8901 16.3478 16.2461 16.3779 16.5976 16.4381C16.9213 16.4861 17.2321 16.5982 17.5119 16.7679C17.7822 16.9208 18.0012 17.1502 18.1413 17.4273C18.3149 17.7597 18.3977 18.1319 18.3811 18.5065C18.4091 18.8291 18.3597 19.1537 18.2372 19.4534C18.1147 19.7531 17.9226 20.0194 17.6767 20.2301C17.1403 20.5988 16.4985 20.7829 15.8482 20.7546H11.6516V16.3482ZM18.9057 27.4991C18.7517 27.8046 18.5189 28.0633 18.2313 28.2485C17.932 28.4347 17.6022 28.5666 17.2571 28.6382C16.8735 28.7241 16.4811 28.7643 16.088 28.7581H11.5917V23.5873H16.088C16.8596 23.5535 17.6216 23.769 18.2612 24.2018C18.5502 24.4612 18.7741 24.7849 18.9147 25.1468C19.0553 25.5088 19.1087 25.8987 19.0706 26.2851C19.1111 26.6971 19.0546 27.1129 18.9057 27.4991Z" fill="#FCFFFF"/>
</svg>
