<svg width="45" height="45" viewBox="0 0 45 45" fill="none" xmlns="http://www.w3.org/2000/svg">
<path fill-rule="evenodd" clip-rule="evenodd" d="M10.1624 0H34.8376C37.5305 0.00776581 40.1108 1.08592 42.015 2.99893C43.9191 4.91195 44.9923 7.50432 45 10.2097V34.794C44.9913 37.4987 43.9177 40.0902 42.0137 42.0024C40.1097 43.9146 37.5299 44.9922 34.8376 45H10.1624C7.47014 44.9922 4.89034 43.9146 2.98631 42.0024C1.08228 40.0902 0.00869536 37.4987 0 34.794V10.2097C0.00772978 7.50432 1.08089 4.91195 2.98502 2.99893C4.88916 1.08592 7.46951 0.00776581 10.1624 0Z" fill="#8DB7BD"/>
<path fill-rule="evenodd" clip-rule="evenodd" d="M18.0139 17.4431H23.7012V20.3865H23.7817C24.5764 18.9589 26.51 17.4431 29.3994 17.4431C35.4016 17.4431 36.5112 21.1959 36.5112 26.0782V36.4019H30.5823V27.2261C30.5823 25.1252 30.5383 22.4211 27.4988 22.4211C24.4592 22.4211 23.9392 24.7058 23.9392 27.0752V36.4203H18.0139V17.4431ZM14.6484 11.6963C14.6484 12.309 14.4676 12.9079 14.1288 13.4173C13.79 13.9268 13.3084 14.3238 12.7449 14.5583C12.1815 14.7928 11.5615 14.8541 10.9634 14.7346C10.3652 14.6151 9.81582 14.32 9.38458 13.8868C8.95335 13.4535 8.65967 12.9015 8.5407 12.3006C8.42172 11.6997 8.48278 11.0768 8.71616 10.5108C8.94955 9.94469 9.34477 9.46087 9.85184 9.12047C10.3589 8.78008 10.9551 8.59839 11.5649 8.59839C12.3824 8.59936 13.1662 8.92606 13.7442 9.50681C14.3223 10.0876 14.6475 10.8749 14.6484 11.6963ZM8.48877 17.4431H14.6484V36.4019H8.48877V17.4431Z" fill="#FCFFFF"/>
</svg>
