<?xml version="1.0" encoding="UTF-8"?>
<svg id="_레이어_2" data-name="레이어 2" xmlns="http://www.w3.org/2000/svg" viewBox="0 0 168.34 81.39">
  <g id="_레이어_1-2" data-name="레이어 1">
    <path d="M168.34,0v3.63h-6.73v76.41l-7.13,1.35-40.79-61.98v43.56h7.42c3.37,0,3.8,2.79,4.01,3.64h-31.68v-3.63h8.09v-17.24c-.63,1.34-1.39,2.69-2.29,4.03-4.3,6.1-10.09,9.15-17.35,9.15-12.74-.09-19.15-7.53-19.24-22.33V13.59l-14.89,32.55v30.94h7.66c1.89.18,3.1,1.39,3.64,3.63H23.23v-3.63h8.11v-29.86L6.73,3.63H0V0h23.08l22.26,41.57L62.65,3.63h-6.73V0h21.53v38.74c0,1.17.09,2.33.27,3.5.89,6.73,4.3,10.09,10.22,10.09,1.79,0,3.59-.49,5.38-1.48,4.75-2.87,7.35-7.89,7.8-15.07l.14-35.78h20.1l34.73,51.05V3.63h-6.73V0h18.98Z"/>
  </g>
</svg>